<?xml version="1.0" standalone="no"?>
<!DOCTYPE svg PUBLIC "-//W3C//DTD SVG 20010904//EN"
 "http://www.w3.org/TR/2001/REC-SVG-20010904/DTD/svg10.dtd">
<svg version="1.0" xmlns="http://www.w3.org/2000/svg"
 width="748.000000pt" height="168.000000pt" viewBox="0 0 748.000000 168.000000"
 preserveAspectRatio="xMidYMid meet">
<metadata>
Created by potrace 1.16, written by Peter Selinger 2001-2019
</metadata>
<g transform="translate(0.000000,168.000000) scale(0.100000,-0.100000)"
fill="#000000" stroke="none">
<path d="M0 1325 l0 -355 25 0 c14 0 36 -7 48 -15 27 -17 78 -5 140 34 37 23
38 24 20 45 -10 11 -26 27 -36 35 -15 10 -17 21 -12 47 5 29 1 38 -30 69 -19
20 -35 42 -35 49 0 20 -20 32 -62 40 -34 6 -38 10 -38 36 0 34 26 54 83 64 54
10 86 26 92 48 4 10 11 18 17 18 14 0 48 39 48 55 0 13 -29 45 -75 83 -21 17
-25 25 -16 36 13 15 4 49 -10 40 -5 -3 -9 2 -9 10 0 13 -14 16 -75 16 l-75 0
0 -355z"/>
<path d="M4554 1668 c-4 -6 -3 -9 2 -5 5 3 17 -1 28 -8 13 -10 16 -20 11 -36
l-8 -23 -17 22 c-10 12 -24 22 -32 22 -10 0 -10 -2 2 -10 26 -16 2 -22 -29 -7
-30 15 -31 15 -37 -11 -3 -15 -7 -33 -10 -40 -6 -19 -35 -27 -45 -11 -8 12
-11 12 -19 -1 -5 -8 -8 -21 -5 -28 3 -9 -1 -11 -14 -7 -11 3 -22 1 -25 -4 -4
-6 -13 -8 -20 -5 -10 4 -14 -6 -14 -37 -1 -27 -9 -53 -22 -71 -22 -30 -40
-100 -24 -97 5 1 17 -1 27 -6 12 -5 25 -1 41 14 12 11 28 21 34 21 7 0 12 5
12 11 0 5 4 8 9 5 12 -8 21 18 21 61 0 30 2 34 15 23 13 -10 15 -9 15 8 0 20
19 43 21 25 1 -9 3 -21 17 -79 9 -41 56 -114 73 -114 12 0 21 -38 14 -60 -4
-11 -11 -18 -16 -15 -5 4 -9 3 -10 -2 0 -4 -2 -18 -3 -30 -2 -13 0 -21 2 -18
7 6 32 -15 32 -26 0 -18 -49 -9 -60 11 -8 15 -17 19 -31 15 -15 -5 -19 -2 -19
14 0 18 -6 21 -43 21 -24 0 -48 5 -55 12 -9 9 -12 7 -13 -13 -1 -16 -3 -18 -6
-7 -3 14 -8 15 -28 6 -28 -12 -41 -48 -18 -48 13 0 13 -2 2 -17 -11 -13 -11
-17 -1 -21 10 -3 10 -7 2 -17 -8 -10 -8 -19 -1 -33 9 -17 8 -19 -9 -15 -11 3
-20 10 -20 15 0 5 -7 3 -15 -6 -8 -8 -15 -22 -15 -31 0 -9 -5 -25 -10 -36 -9
-16 -7 -21 13 -28 18 -7 28 -24 42 -68 10 -32 21 -61 24 -66 4 -4 17 24 30 63
20 62 25 70 48 70 16 0 24 -5 21 -12 -3 -7 -20 -57 -38 -111 -32 -92 -35 -98
-59 -95 -23 3 -30 15 -65 111 -41 112 -61 144 -26 41 22 -65 25 -99 10 -89 -5
3 -10 15 -10 26 0 13 -6 19 -16 17 -10 -2 -19 3 -22 11 -2 8 0 11 5 8 6 -4 11
4 11 18 0 29 -12 33 -98 33 -53 1 -60 -1 -36 -8 40 -13 46 -25 46 -103 0 -65
-1 -68 -22 -65 -21 3 -23 9 -24 61 -1 63 -5 72 -29 64 -11 -5 -15 -22 -15 -67
0 -57 -1 -60 -25 -60 -24 0 -25 2 -25 65 0 50 -3 65 -15 65 -22 0 -37 -37 -33
-83 2 -37 0 -42 -20 -45 -20 -3 -22 1 -23 50 -1 29 -4 41 -6 26 -2 -16 -11
-28 -19 -28 -8 0 -14 -10 -14 -25 0 -18 -5 -25 -20 -25 -11 0 -20 5 -20 11 0
8 -4 8 -12 1 -7 -5 -22 -12 -33 -15 -11 -2 -6 -3 11 -2 23 3 38 -3 55 -21 26
-27 76 -33 85 -9 5 11 10 13 19 5 6 -5 15 -7 18 -3 4 3 7 1 7 -5 0 -7 -4 -12
-10 -12 -5 0 -10 -9 -10 -20 0 -17 3 -18 18 -9 25 16 72 -4 66 -28 -7 -27 49
-50 83 -34 18 8 24 17 20 31 -4 15 0 20 16 20 30 0 51 15 42 30 -4 6 0 19 8
28 9 9 22 30 31 46 l15 29 7 -27 c4 -16 12 -25 19 -22 7 2 15 -4 18 -15 3 -10
12 -19 21 -19 9 0 34 -13 57 -29 22 -17 46 -28 54 -25 7 3 16 -3 20 -15 3 -12
10 -21 15 -21 20 0 37 -30 32 -59 -5 -37 -19 -40 -32 -6 -5 14 -14 25 -19 25
-13 0 -34 -67 -25 -82 5 -8 2 -9 -9 -5 -12 5 -17 1 -17 -13 0 -11 -6 -20 -12
-21 -7 0 -28 -2 -47 -4 -30 -2 -32 -1 -18 12 14 14 12 21 -15 65 -31 51 -51
57 -56 20 -2 -12 -8 -20 -13 -17 -13 9 -11 -19 3 -33 14 -14 -9 -45 -29 -38
-17 7 -17 -10 0 -18 9 -3 7 -9 -6 -19 -14 -12 -15 -16 -4 -20 20 -7 29 -47 12
-47 -8 0 -17 5 -20 10 -3 6 -17 10 -30 10 -18 0 -23 4 -19 15 4 8 2 15 -4 15
-13 0 -39 -41 -48 -74 -3 -14 -11 -26 -16 -26 -6 0 -8 -9 -5 -20 3 -11 1 -20
-5 -20 -5 0 -6 -5 -2 -11 5 -9 -1 -10 -20 -5 -18 4 -34 2 -44 -6 -12 -10 -16
-10 -19 0 -6 16 -35 16 -52 0 -10 -11 -16 -9 -31 10 -10 12 -23 22 -29 22 -6
0 -15 9 -21 20 -10 19 -12 19 -42 4 -24 -12 -33 -14 -36 -4 -3 7 -9 2 -16 -12
-8 -14 -19 -22 -32 -20 -18 2 -18 2 -1 -11 15 -12 15 -47 0 -47 -12 0 -34 32
-30 44 9 23 -14 38 -30 18 -12 -16 -12 -15 -6 3 6 17 5 18 -9 7 -11 -9 -18
-10 -23 -2 -3 6 -10 8 -15 5 -5 -3 -11 -1 -15 5 -10 16 -28 12 -21 -5 3 -10
-1 -18 -12 -22 -9 -4 -21 -13 -25 -20 -7 -12 -12 -11 -28 3 -24 22 -52 9 -57
-24 -5 -31 -28 -47 -47 -32 -19 16 -25 10 -29 -24 -3 -27 -16 -49 -16 -27 0 7
-4 10 -9 7 -5 -3 -12 2 -17 12 -6 14 -8 11 -13 -13 -3 -16 -12 -30 -19 -30 -7
0 -17 -7 -22 -15 -7 -10 -10 -11 -10 -2 0 21 -27 13 -33 -9 -4 -14 -11 -20
-21 -16 -8 3 -17 1 -20 -6 -3 -7 -3 -2 -1 9 4 16 0 23 -16 27 -19 5 -21 3 -15
-24 3 -16 2 -29 -3 -29 -4 0 -8 -7 -8 -15 0 -13 50 -15 383 -15 l384 0 -6 28
c-10 50 16 64 105 58 85 -6 111 -11 159 -32 35 -16 42 -40 15 -47 -10 -3 1 -5
25 -6 40 -1 42 1 42 27 0 16 6 37 14 48 21 27 41 4 37 -41 -2 -32 0 -35 23
-35 33 0 78 20 94 42 16 21 52 24 52 4 0 -26 47 -46 111 -46 54 0 65 3 87 27
17 18 33 27 49 25 13 -2 30 2 38 8 17 14 45 1 73 -35 21 -26 41 -32 58 -15 15
15 132 16 146 2 12 -12 361 -18 391 -6 11 4 12 14 5 47 -16 79 -20 112 -11
101 4 -6 22 -15 38 -21 20 -6 31 -17 33 -32 l4 -23 22 21 c22 21 23 21 40 2
11 -12 14 -21 7 -26 -6 -3 -11 -13 -11 -21 0 -11 10 -14 40 -12 22 1 45 -3 52
-10 7 -7 18 -12 26 -12 12 0 12 3 2 15 -21 26 33 31 73 6 29 -18 37 -19 69 -8
20 7 42 18 50 25 18 14 80 23 72 10 -3 -5 2 -20 11 -35 l17 -25 12 23 c11 22
19 24 81 26 96 2 135 11 128 30 -4 11 -2 14 8 11 8 -3 13 -12 11 -20 -1 -10 8
-18 24 -22 20 -5 30 -2 41 14 10 14 25 20 54 20 22 0 49 5 60 11 16 8 26 7 45
-6 21 -13 23 -19 13 -37 -10 -19 -9 -20 14 -16 19 4 28 -1 38 -19 12 -23 15
-23 165 -23 149 0 153 1 160 22 4 13 2 24 -5 26 -7 2 -6 10 4 25 13 18 12 22
-5 34 -11 8 -17 20 -13 29 4 12 8 11 17 -7 8 -16 29 -27 76 -39 95 -25 128
-41 135 -67 l5 -23 230 0 230 0 0 840 0 840 -1459 0 c-1093 0 -1462 -3 -1467
-12z m1115 -122 c6 -7 9 -21 5 -30 -3 -9 -1 -22 5 -30 8 -10 2 -16 -29 -26
-22 -7 -40 -17 -40 -22 0 -16 -49 -8 -53 10 -3 9 -5 1 -6 -20 0 -20 4 -38 10
-40 10 -3 -45 -68 -57 -68 -2 0 -4 11 -4 25 0 16 -6 25 -15 25 -33 0 -7 -77
30 -86 28 -7 33 -22 9 -31 -9 -3 -13 -12 -9 -22 4 -9 8 -29 11 -45 2 -16 10
-36 19 -46 8 -9 15 -22 15 -29 0 -7 11 -11 27 -9 21 2 30 -3 38 -19 7 -17 16
-22 37 -19 33 3 72 41 62 58 -5 7 -1 9 13 6 11 -3 31 4 48 18 l29 23 -32 31
c-18 16 -32 37 -32 44 0 19 33 29 70 21 19 -4 30 -3 30 4 0 19 32 12 37 -9 3
-11 9 -20 15 -20 5 0 4 -8 -2 -19 -15 -30 -12 -48 10 -54 11 -3 18 -1 14 4
-11 18 8 8 26 -13 14 -17 26 -22 59 -20 30 2 55 -5 91 -25 44 -25 53 -26 82
-15 27 10 35 9 49 -4 11 -10 19 -12 24 -5 9 16 23 13 42 -9 10 -11 21 -20 26
-20 5 0 20 -9 33 -19 19 -15 22 -21 11 -28 -7 -4 -20 -18 -29 -30 l-15 -23
-36 31 c-21 17 -37 38 -37 46 0 13 -3 13 -15 3 -12 -10 -19 -10 -27 -2 -15 15
-48 16 -48 1 0 -6 -6 -9 -14 -6 -8 3 -22 -3 -32 -14 -9 -10 -28 -19 -41 -19
-14 0 -37 -13 -53 -28 -19 -20 -38 -29 -60 -29 -17 0 -35 -5 -40 -12 -5 -9 -9
-5 -14 13 -3 14 -11 26 -16 26 -6 0 -10 7 -10 15 0 23 -18 18 -49 -14 -15 -15
-34 -30 -42 -33 -8 -3 -13 -16 -11 -32 1 -21 -2 -27 -12 -23 -9 3 -16 -2 -19
-15 -5 -16 -11 -19 -31 -14 -14 3 -28 2 -31 -4 -3 -5 -21 -10 -38 -10 -24 0
-36 -7 -48 -28 -10 -18 -24 -27 -42 -28 -15 -1 -27 2 -27 7 0 5 4 9 8 9 5 0
13 16 19 35 6 19 7 33 3 30 -5 -3 -11 1 -13 7 -4 10 -8 10 -15 -1 -5 -7 -15
-10 -21 -7 -16 10 -13 -10 4 -24 12 -10 12 -15 0 -34 -13 -19 -23 -22 -62 -20
-26 2 -50 0 -53 -4 -3 -4 -19 -12 -37 -18 -26 -10 -35 -9 -43 2 -7 7 -8 18 -4
25 5 8 -2 10 -25 7 -24 -3 -35 0 -42 13 -5 10 -16 16 -23 13 -8 -3 -17 0 -21
5 -3 6 -10 9 -15 6 -28 -17 -56 117 -37 171 6 16 0 31 -25 60 -61 71 -77 84
-103 85 -14 1 -29 2 -35 3 -13 1 -36 26 -25 26 5 0 0 7 -12 15 -12 8 -28 12
-37 9 -9 -3 -16 -1 -16 5 0 6 -11 11 -25 11 -14 0 -25 5 -25 11 0 6 -7 9 -15
6 -20 -8 -26 5 -11 25 15 20 56 20 56 0 0 -8 9 -12 23 -10 12 2 21 9 19 16 -1
7 11 20 28 30 16 9 33 25 36 35 6 19 39 57 50 57 3 0 14 -10 23 -22 l18 -21
39 26 c25 18 52 27 76 27 24 0 38 5 38 13 0 6 19 26 41 42 23 17 44 38 48 49
4 10 22 24 39 32 29 12 32 11 32 -5 0 -10 9 -30 21 -45 21 -27 48 -33 65 -16
12 12 53 15 76 5 13 -5 20 -1 27 18 9 23 55 67 71 67 4 0 13 -6 19 -14z m-937
-663 c10 -11 17 -44 20 -85 3 -60 2 -68 -13 -68 -10 0 -21 4 -24 10 -4 6 -13
5 -25 -2 -29 -18 -74 1 -78 32 -3 35 10 51 48 59 37 7 53 31 22 31 -11 0 -22
-6 -24 -12 -3 -9 -11 -10 -28 -2 l-24 10 22 22 c27 27 82 29 104 5z m162 -4
c17 -14 26 -30 26 -50 0 -28 -1 -29 -50 -29 -28 0 -50 -5 -50 -10 0 -17 31
-24 51 -12 19 12 49 7 49 -9 0 -14 -43 -39 -68 -39 -36 0 -59 17 -71 52 -29
82 48 148 113 97z m1806 -203 c0 -10 -48 -64 -53 -59 -4 3 -7 2 -7 -4 0 -6 24
-23 54 -38 42 -21 53 -31 49 -46 -3 -10 -10 -16 -15 -13 -6 4 -9 -10 -8 -32 3
-65 -7 -84 -46 -84 -19 0 -52 11 -74 25 -22 14 -40 21 -40 16 0 -6 -18 -15
-40 -21 -34 -9 -40 -15 -40 -38 0 -16 8 -32 20 -40 24 -15 26 -30 5 -38 -9 -4
-26 5 -41 21 -25 27 -26 28 -60 12 -27 -13 -34 -14 -34 -3 0 7 -7 27 -16 44
-20 40 -15 63 15 78 l23 12 -21 11 c-11 7 -21 17 -21 23 0 6 8 4 18 -5 24 -22
29 -21 35 2 2 11 15 21 28 23 17 2 24 10 25 26 2 27 15 42 21 25 6 -16 30 -17
35 -2 2 7 22 12 43 13 34 1 41 5 43 25 2 13 -1 28 -7 34 -24 24 -11 29 77 34
17 1 32 1 32 -1z"/>
<path d="M3630 718 c0 -9 -9 -20 -21 -23 -16 -5 -20 -13 -16 -31 2 -14 0 -27
-4 -30 -16 -10 -9 -23 14 -27 l22 -4 -22 -2 c-32 -2 -29 -21 2 -21 22 0 24 -3
16 -19 -8 -14 -7 -22 4 -31 12 -10 15 -9 15 4 0 9 5 16 11 16 5 0 7 -5 4 -10
-10 -17 27 -5 65 19 19 13 27 21 18 18 -27 -9 -26 15 1 41 20 18 22 22 7 18
-16 -6 -17 -4 -6 9 9 11 10 19 3 26 -7 7 -14 5 -23 -6 -18 -22 -32 -19 -18 4
16 26 -7 58 -29 40 -11 -9 -17 -8 -28 7 -13 17 -14 17 -15 2z"/>
<path d="M3265 628 c-10 -12 -22 -39 -25 -60 -6 -31 -3 -41 15 -58 12 -11 26
-20 32 -20 7 0 23 -15 37 -32 30 -39 39 -34 64 41 18 53 18 54 -2 79 -64 77
-89 87 -121 50z"/>
<path d="M0 295 l0 -295 358 1 c196 1 345 4 330 6 -16 2 -28 9 -28 14 0 5 -10
10 -22 10 -17 1 -18 3 -6 6 11 3 17 13 15 25 -1 15 6 23 28 31 17 5 37 16 46
23 9 8 19 11 22 7 4 -3 7 0 7 9 0 17 -31 48 -48 48 -7 0 -12 5 -12 10 0 6 -8
10 -17 10 -9 0 -25 8 -35 17 -15 14 -21 15 -27 4 -7 -11 -10 -11 -16 0 -5 7
-1 18 11 28 52 43 57 114 12 180 -22 33 -31 58 -31 89 -1 23 -4 42 -8 42 -18
0 -38 -13 -33 -21 3 -5 0 -9 -5 -9 -6 0 -11 -7 -11 -15 0 -17 -35 -21 -45 -5
-4 6 -15 8 -25 5 -11 -3 -20 0 -24 10 -3 8 -1 15 5 15 6 0 7 5 4 10 -4 6 -11
8 -16 5 -5 -4 -9 -1 -9 4 0 25 -17 9 -18 -16 -3 -71 -6 -84 -20 -78 -12 5 -13
3 -2 -10 7 -9 10 -18 6 -22 -3 -3 -6 -1 -6 6 0 8 -6 11 -16 7 -9 -3 -12 -2 -9
5 4 5 -3 18 -14 28 -12 10 -21 26 -21 35 0 9 -4 16 -10 16 -5 0 -10 -10 -10
-23 0 -17 -10 -28 -40 -41 -23 -10 -48 -29 -56 -42 -11 -15 -26 -24 -43 -24
-34 1 -65 25 -58 45 5 11 0 15 -16 16 -12 0 -16 3 -10 6 7 2 13 9 13 14 0 6
-5 7 -10 4 -14 -9 -34 15 -38 45 -1 14 -7 27 -12 28 -6 2 -10 10 -10 18 0 8
-4 14 -10 14 -6 0 -10 -105 -10 -295z"/>
<path d="M896 463 c-32 -17 -32 -20 -1 -45 23 -18 36 -46 16 -33 -5 3 -13 1
-16 -5 -4 -6 -21 -8 -41 -4 -30 6 -34 4 -34 -15 0 -12 -4 -19 -10 -16 -5 3
-10 1 -10 -6 0 -8 -4 -8 -16 2 -13 10 -17 10 -24 -1 -7 -11 3 -17 43 -27 61
-16 67 -21 45 -37 -10 -7 -15 -16 -11 -19 9 -10 -2 -9 -31 3 -21 7 -26 6 -26
-5 0 -8 -9 -15 -21 -15 -12 0 -17 -4 -13 -11 3 -6 19 -9 34 -5 22 4 29 1 33
-16 4 -12 11 -18 20 -15 8 3 20 1 28 -4 11 -7 11 -11 1 -21 -8 -8 -15 -9 -20
-3 -13 19 -64 37 -75 26 -7 -7 -1 -12 16 -16 17 -5 24 -12 20 -21 -3 -9 2 -14
13 -14 13 0 8 -6 -13 -16 -35 -17 -47 -49 -15 -40 9 2 33 7 52 11 l35 6 -34
-16 c-18 -8 -42 -15 -52 -15 -11 0 -19 -7 -19 -16 0 -14 9 -15 66 -9 l67 7 -7
-26 c-6 -24 -4 -26 24 -26 24 0 30 4 30 21 0 18 4 20 28 15 59 -15 96 -12 100
8 2 11 -4 26 -14 33 -16 12 -16 14 0 31 21 24 5 40 -43 44 -18 1 -35 6 -37 10
-9 15 27 21 60 11 26 -8 37 -7 54 8 29 23 28 37 -3 31 -14 -2 -25 -8 -25 -13
0 -5 -5 -9 -11 -9 -5 0 -8 4 -5 9 4 5 0 12 -6 14 -7 3 -3 6 8 6 12 1 25 8 28
17 8 22 8 26 -4 19 -5 -3 -17 -1 -27 4 -10 5 -27 13 -38 17 -18 7 -17 8 7 11
14 3 29 11 32 19 3 9 1 12 -4 9 -6 -3 -10 -4 -10 0 0 3 12 10 27 16 23 8 25
12 12 24 -15 15 -59 10 -59 -7 0 -5 -4 -6 -10 -3 -18 11 -10 35 15 45 14 5 25
14 25 20 0 6 -4 9 -9 6 -5 -4 -7 3 -4 14 4 15 -1 20 -23 25 -16 4 -36 9 -44
13 -27 10 -47 9 -74 -5z"/>
</g>
</svg>
